# xmcd
#
# Track frame offsets:
#	150
#	16972
#	37637
#	51960
#	68742
#
# Disc length: 1200 seconds
#
# Revision: 1
# Processed by: cddbd v1.5.1PL0 Copyright (c) Steve Scherf et al.
# Submitted via: CDex 1.50Beta5
#
DISCID=3304ae05
DTITLE=横山智佐・TARAKO - みかん絵日記 BEST5
DYEAR=1900
DGENRE=Soundtrack
TTITLE0=ないっしょ!のバイリン・キャット
TTITLE1=おじいさんへのおてがみ
TTITLE2=でっかいキャンバス
TTITLE3=赤いピアノ
TTITLE4=愛がくるくるまわる日
EXTD=
EXTT0=
EXTT1=
EXTT2=
EXTT3=
EXTT4=
PLAYORDER=
